<svg class="svg-icon" style="width: 1em; height: 1em;vertical-align: middle;fill: currentColor;overflow: hidden;" viewBox="0 0 1024 1024" version="1.1" xmlns="http://www.w3.org/2000/svg"><path d="M821.6576 762.0608l-114.4832-110.1824c42.3936-49.3568 67.7888-111.616 67.7888-180.8384 0-155.4432-131.4816-282.4192-292.4544-282.4192-162.6112 1.4336-293.888 126.976-293.888 282.4192s131.4816 282.4192 292.4544 282.4192c55.9104 0 110.7968-15.5648 158.3104-45.2608l118.784 114.4832c16.9984 16.9984 45.2608 16.9984 63.6928 0 8.8064-7.5776 13.7216-18.6368 13.7216-30.3104-0.2048-11.6736-5.12-22.7328-13.9264-30.3104m-340.5824-87.6544c-115.9168 0-210.5344-90.3168-210.5344-203.3664 0-111.616 94.6176-201.9328 210.5344-201.9328 115.9168 0 210.5344 90.3168 210.5344 203.3664 0 111.616-94.6176 201.9328-210.5344 201.9328"  /></svg>